<?xml version="1.0" encoding="iso-8859-1"?>
<!-- Uploaded to: SVG Repo, www.svgrepo.com, Generator: SVG Repo Mixer Tools -->
<svg height="800px" width="800px" version="1.1" id="Layer_1" xmlns="http://www.w3.org/2000/svg" xmlns:xlink="http://www.w3.org/1999/xlink" 
	 viewBox="0 0 512.001 512.001" xml:space="preserve">
<g>
	<path style="fill:#FFD782;" d="M503.911,255.536l-0.342-181.803c-0.068-36.36-29.873-66.054-66.234-65.986l-181.8,0.342
		l0.466,247.911L503.911,255.536z"/>
	<path style="fill:#FFD782;" d="M255.536,8.09L73.733,8.432C37.373,8.5,7.679,38.305,7.747,74.665l0.342,181.803l247.912-0.466
		L255.536,8.09z"/>
</g>
<path style="fill:#D7DEED;" d="M256.003,256.002l0.466,247.91l181.8-0.342c36.36-0.068,66.054-29.873,65.986-66.234l-0.342-181.801
	L256.003,256.002z"/>
<path style="fill:#FFD782;" d="M8.089,256.468l0.342,181.801c0.068,36.36,29.873,66.054,66.234,65.986l181.804-0.342l-0.466-247.91
	L8.089,256.468z"/>
<path d="M511.317,73.719C511.24,33.071,478.109,0.001,437.46,0.001L73.719,0.684C32.994,0.761-0.076,33.955,0,74.68l0.684,363.603
	c0.076,40.648,33.208,73.717,73.856,73.717l363.743-0.684c40.725-0.076,73.794-33.271,73.719-73.995L511.317,73.719z
	 M438.253,495.822l-363.603,0.684h-0.111c-32.12,0-58.3-26.132-58.361-58.253L15.495,74.651
	C15.434,42.47,41.567,16.24,73.748,16.179l363.602-0.684h0.109c32.121,0,58.302,26.132,58.362,58.253l0.684,363.602
	C496.567,469.532,470.435,495.762,438.253,495.822z"/>
<path d="M470.857,247.85c-0.005,0-0.01,0-0.016,0l-207.109,0.389L263.343,41.13c-0.008-4.274-3.475-7.733-7.747-7.733
	c-0.005,0-0.01,0-0.015,0c-4.279,0.008-7.741,3.483-7.733,7.762l0.389,207.108l-207.109,0.389c-4.279,0.008-7.741,3.483-7.733,7.762
	c0.008,4.274,3.475,7.733,7.747,7.733c0.005,0,0.01,0,0.015,0l207.109-0.389l0.389,207.109c0.008,4.274,3.475,7.733,7.747,7.733
	c0.005,0,0.01,0,0.016,0c4.279-0.008,7.741-3.483,7.733-7.762l-0.389-207.108l207.109-0.389c4.279-0.008,7.741-3.483,7.733-7.762
	C478.595,251.308,475.128,247.85,470.857,247.85z"/>
<path d="M65.702,140.15c0.005,0,0.01,0,0.015,0l58.362-0.109l0.109,58.362c0.008,4.274,3.475,7.733,7.747,7.733
	c0.005,0,0.01,0,0.015,0c4.279-0.008,7.741-3.483,7.733-7.762l-0.109-58.362l58.362-0.109c4.279-0.008,7.741-3.483,7.733-7.762
	c-0.008-4.274-3.475-7.733-7.747-7.733c-0.005,0-0.01,0-0.016,0l-58.362,0.109l-0.109-58.362c-0.008-4.274-3.475-7.733-7.747-7.733
	c-0.005,0-0.01,0-0.015,0c-4.279,0.008-7.741,3.483-7.733,7.762l0.109,58.362l-58.362,0.109c-4.279,0.008-7.741,3.483-7.733,7.762
	C57.963,136.692,61.429,140.15,65.702,140.15z"/>
<path d="M313.613,139.684c0.005,0,0.01,0,0.016,0l132.219-0.249c4.279-0.008,7.741-3.483,7.733-7.762
	c-0.008-4.274-3.475-7.733-7.747-7.733c-0.005,0-0.01,0-0.016,0l-132.219,0.249c-4.279,0.008-7.741,3.483-7.733,7.762
	C305.874,136.226,309.341,139.684,313.613,139.684z"/>
<path d="M446.298,371.852c-0.005,0-0.01,0-0.016,0l-132.219,0.249c-4.279,0.008-7.741,3.483-7.733,7.762
	c0.008,4.274,3.475,7.733,7.747,7.733c0.005,0,0.01,0,0.016,0l132.219-0.249c4.279-0.008,7.741-3.483,7.733-7.762
	C454.037,375.311,450.571,371.852,446.298,371.852z"/>
<path d="M143.234,380.169l44.021-44.186c3.019-3.032,3.01-7.936-0.021-10.957c-3.032-3.019-7.936-3.011-10.957,0.021l-44.021,44.186
	l-44.186-44.021c-3.032-3.019-7.936-3.011-10.957,0.021c-3.019,3.032-3.01,7.936,0.021,10.957l44.187,44.021l-44.021,44.187
	c-3.019,3.032-3.01,7.936,0.021,10.957c1.512,1.506,3.489,2.259,5.467,2.259c1.987,0,3.975-0.76,5.488-2.28l44.021-44.187
	l44.187,44.021c1.512,1.506,3.489,2.259,5.467,2.259c1.987,0,3.975-0.76,5.488-2.28c3.019-3.032,3.01-7.936-0.021-10.957
	L143.234,380.169z"/>
<path d="M380.141,354.416c13.385-0.025,24.254-10.935,24.229-24.32c-0.025-13.36-10.914-24.229-24.32-24.229
	c-6.484,0.012-12.575,2.548-17.151,7.142c-4.576,4.594-7.089,10.694-7.078,17.178c0.025,13.36,10.914,24.229,24.274,24.229
	C380.1,354.416,380.136,354.416,380.141,354.416z M371.316,330.158c-0.004-2.346,0.905-4.551,2.56-6.213
	c1.656-1.661,3.858-2.579,6.221-2.583c4.832,0,8.771,3.931,8.78,8.764c0.009,4.842-3.922,8.787-8.764,8.797l-0.018,7.747v-7.747
	C375.263,338.921,371.325,334.99,371.316,330.158z"/>
<path d="M380.236,405.031c-6.484,0.012-12.575,2.548-17.151,7.143c-4.576,4.594-7.089,10.694-7.078,17.178
	c0.025,13.36,10.914,24.229,24.275,24.229c0.005,0,0.041,0,0.047,0c6.484-0.012,12.575-2.548,17.151-7.142
	c4.576-4.594,7.089-10.694,7.078-17.178C404.532,415.9,393.642,405.031,380.236,405.031z M386.502,435.502
	c-1.656,1.661-3.858,2.579-6.204,2.583l-0.018,7.747v-7.747c-4.832,0-8.771-3.931-8.78-8.764c-0.004-2.346,0.905-4.552,2.561-6.213
	c1.655-1.661,3.858-2.579,6.22-2.583c4.832,0,8.77,3.931,8.779,8.764C389.067,431.635,388.157,433.84,386.502,435.502z"/>
</svg>